<?xml version="1.0" encoding="UTF-8"?>
<svg id="Layer_2" data-name="Layer 2" xmlns="http://www.w3.org/2000/svg" viewBox="0 0 351.06 112.35">
  <defs>
    <style>
      .cls-1 {
        fill: #04bdf3;
      }

      .cls-1, .cls-2 {
        stroke-width: 0px;
      }

      .cls-2 {
        fill: #16205b;
      }
    </style>
  </defs>
  <g id="Layer_1-2" data-name="Layer 1">
    <g>
      <g>
        <path class="cls-1" d="m86.92,84.26h22.78c1.46,0,2.65,1.19,2.65,2.65v25.43h-25.43c-1.46,0-2.65-1.19-2.65-2.65v-22.78c0-1.46,1.19-2.65,2.65-2.65Z" transform="translate(196.61 196.6) rotate(180)"/>
        <g>
          <path class="cls-2" d="m42.14,84.26c-7.76,0-14.05-6.29-14.05-14.05v-28.07c0-3.91,1.6-7.45,4.19-10L64.41,0H27.97C12.52,0,0,12.52,0,27.97v56.41c0,15.45,12.52,27.97,27.97,27.97h26.02c1.41,0,2.76-.56,3.75-1.55l26.51-26.51-.02-.02h-42.08Z"/>
          <path class="cls-1" d="m84.38,0h-19.97l-32.14,32.14c2.54-2.5,6.02-4.05,9.87-4.05h28.07c7.76,0,14.05,6.29,14.05,14.05v42.12h-.04l.02.02h0s26.54-26.54,26.54-26.54c1-1,1.55-2.34,1.55-3.75v-26.02c0-15.44-12.52-27.96-27.96-27.96Z"/>
        </g>
      </g>
      <path id="l" class="cls-2" d="m122.88,109.68V2.66c0-1.47,1.19-2.65,2.65-2.65h22.78c1.47,0,2.65,1.19,2.65,2.65v107.02c0,1.47-1.19,2.65-2.65,2.65h-22.78c-1.47,0-2.65-1.19-2.65-2.65Z"/>
      <path id="a" class="cls-2" d="m231.79,42.13c-.01-1.02-.17-5.78-3.97-9.7-4.06-4.19-9.22-4.29-10.15-4.3h-42.13c-.9,0-6.37.11-10.44,4.6-3.46,3.82-3.6,8.29-3.61,9.39v11.39c0,1.47,1.19,2.65,2.65,2.65h22.77c1.47,0,2.66-1.18,2.67-2.65v-1.74c.03-1.46,1.21-2.63,2.67-2.63h8.7c1.46,0,2.65,1.19,2.65,2.65v8.72c.02,1.47-1.17,2.66-2.64,2.66h-25.43c-.91.02-6.29.14-10.34,4.55-3.55,3.86-3.69,8.41-3.7,9.5,0,7.02,0,14.04,0,21.06,0,.88.05,6.05,4.26,10.07,4,3.81,8.84,3.99,9.78,3.97h25.43c1.47,0,2.65-1.19,2.65-2.65v-11.39c-.14,1.57-.39,6.59,2.99,10.74.12.15.25.3.38.44,1.75,1.88,4.27,2.86,6.84,2.86h15.34c1.47,0,2.65-1.19,2.65-2.65l-.04-67.56Zm-30.82,49.15h-8.74c-1.47,0-2.65-1.19-2.65-2.65v-8.74c0-1.47,1.19-2.65,2.65-2.65h8.74c1.47,0,2.65,1.19,2.65,2.65v8.74c0,1.47-1.19,2.65-2.65,2.65Z"/>
      <path id="r" class="cls-2" d="m291.39,46.5c0,1.47-1.19,2.65-2.66,2.65h-4.36c-1.04,0-5.71.11-9.63,3.78-4.32,4.06-4.41,9.36-4.41,10.26v46.5c0,1.47-1.19,2.65-2.65,2.65h-22.78c-1.47,0-2.65-1.19-2.65-2.65V30.78c0-1.47,1.19-2.65,2.65-2.65h22.78c1.47,0,2.65,1.19,2.65,2.65v8.74s0,2.55,0,2.55c0,0,0,0,0,0,.45-9.91,7.02-13.95,7.02-13.95,4.41-2.72,9.55-1.62,12.23-.72,1.08.36,1.81,1.37,1.81,2.52v16.57Z"/>
      <path id="r-2" data-name="r" class="cls-2" d="m351.06,46.5c0,1.47-1.19,2.65-2.66,2.65h-4.36c-1.04,0-5.71.11-9.63,3.78-4.32,4.06-4.41,9.36-4.41,10.26v46.5c0,1.47-1.19,2.65-2.65,2.65h-22.78c-1.47,0-2.65-1.19-2.65-2.65V30.78c0-1.47,1.19-2.65,2.65-2.65h22.78c1.47,0,2.65,1.19,2.65,2.65v8.74s0,2.55,0,2.55c0,0,0,0,0,0,.45-9.91,7.02-13.95,7.02-13.95,4.41-2.72,9.55-1.62,12.23-.72,1.08.36,1.81,1.37,1.81,2.52v16.57Z"/>
    </g>
  </g>
</svg>