<?xml version="1.0" encoding="UTF-8"?>
<svg xmlns="http://www.w3.org/2000/svg" width="113" height="36" viewBox="0 0 113 36" fill="none">
  <rect width="113" height="36" rx="4" fill="white"/>
  <path d="M35.1479 35.9966H27.8486C27.3808 35.9966 26.9995 35.6153 26.9995 35.1474V26.999H35.1479C35.6158 26.999 35.9971 27.3803 35.9971 27.8481V35.1474C35.9971 35.6153 35.6158 35.9966 35.1479 35.9966Z" fill="#04BDF3"></path>
  <path d="M13.5028 26.9992C11.0163 26.9992 9.0008 24.9837 9.0008 22.4972V13.5028C9.0008 12.2499 9.51348 11.1156 10.3434 10.2985L20.6387 0H8.96235C4.01175 0 0 4.01175 0 8.96235V27.0376C0 31.9883 4.01175 36 8.96235 36H17.2999C17.7517 36 18.1842 35.8206 18.5015 35.5033L26.996 27.0088L26.9896 27.0024H13.506L13.5028 26.9992Z" fill="#16205B"></path>
  <path d="M27.0373 0H20.6384L10.3398 10.2985C11.1537 9.49746 12.2688 9.0008 13.5025 9.0008H22.4969C24.9834 9.0008 26.9989 11.0163 26.9989 13.5028V26.9992H26.986L26.9924 27.0056L35.4966 18.5015C35.817 18.181 35.9932 17.7517 35.9932 17.2999V8.96235C35.9932 4.01495 31.9815 0.00320427 27.0341 0.00320427L27.0373 0Z" fill="#04BDF3"></path>
  <path d="M39.374 35.1447V0.85255C39.374 0.381522 39.7553 0.00341797 40.2232 0.00341797H47.5225C47.9935 0.00341797 48.3716 0.384726 48.3716 0.85255V35.1447C48.3716 35.6157 47.9903 35.9938 47.5225 35.9938H40.2232C39.7521 35.9938 39.374 35.6125 39.374 35.1447Z" fill="#16205B"></path>
  <path d="M74.2721 13.4997C74.2689 13.1728 74.2177 11.6476 73 10.3915C71.6991 9.04892 70.0457 9.01688 69.7477 9.01367H56.2481C55.9597 9.01367 54.207 9.04892 52.9028 10.4876C51.7942 11.7117 51.7493 13.144 51.7461 13.4964V17.1461C51.7461 17.6171 52.1274 17.9952 52.5952 17.9952H59.8914C60.3624 17.9952 60.7437 17.6171 60.7469 17.1461V16.5886C60.7565 16.1207 61.1346 15.7458 61.6024 15.7458H64.3902C64.858 15.7458 65.2393 16.1272 65.2393 16.595V19.3891C65.2457 19.8601 64.8644 20.2414 64.3934 20.2414H56.2449C55.9533 20.2479 54.2294 20.2863 52.9317 21.6994C51.7942 22.9362 51.7493 24.3942 51.7461 24.7434C51.7461 26.9928 51.7461 29.2422 51.7461 31.4916C51.7461 31.7736 51.7621 33.4302 53.1111 34.7183C54.3928 35.9392 55.9437 35.9969 56.2449 35.9904H64.3934C64.8644 35.9904 65.2425 35.6091 65.2425 35.1413V31.4916C65.1976 31.9947 65.1175 33.6033 66.2006 34.933C66.239 34.9811 66.2807 35.0292 66.3223 35.074C66.8831 35.6764 67.6906 35.9904 68.5141 35.9904H73.4294C73.9004 35.9904 74.2785 35.6091 74.2785 35.1413L74.2657 13.4932L74.2721 13.4997ZM64.3966 29.2487H61.596C61.125 29.2487 60.7469 28.8673 60.7469 28.3995V25.599C60.7469 25.128 61.1282 24.7499 61.596 24.7499H64.3966C64.8676 24.7499 65.2457 25.1312 65.2457 25.599V28.3995C65.2457 28.8705 64.8644 29.2487 64.3966 29.2487Z" fill="#16205B"></path>
  <path d="M93.3688 14.8999C93.3688 15.371 92.9875 15.7491 92.5165 15.7491H91.1194C90.7862 15.7491 89.2898 15.7843 88.0337 16.9603C86.6495 18.2612 86.6206 19.9595 86.6206 20.2479V35.1477C86.6206 35.6188 86.2393 35.9969 85.7715 35.9969H78.4722C78.0011 35.9969 77.623 35.6156 77.623 35.1477V9.86283C77.623 9.3918 78.0044 9.0137 78.4722 9.0137H85.7715C86.2425 9.0137 86.6206 9.39501 86.6206 9.86283V12.6634V13.4805C86.7648 10.305 88.87 9.01049 88.87 9.01049C90.2831 8.13893 91.9301 8.4914 92.7889 8.77979C93.1349 8.89514 93.3688 9.21877 93.3688 9.58726V14.8967V14.8999Z" fill="#16205B"></path>
  <path d="M112.489 14.8999C112.489 15.371 112.108 15.7491 111.637 15.7491H110.24C109.906 15.7491 108.41 15.7843 107.154 16.9603C105.77 18.2612 105.741 19.9595 105.741 20.2479V35.1477C105.741 35.6188 105.359 35.9969 104.892 35.9969H97.5923C97.1213 35.9969 96.7432 35.6156 96.7432 35.1477V9.86283C96.7432 9.3918 97.1245 9.0137 97.5923 9.0137H104.892C105.363 9.0137 105.741 9.39501 105.741 9.86283V12.6634V13.4805C105.885 10.305 107.99 9.01049 107.99 9.01049C109.403 8.13893 111.05 8.4914 111.909 8.77979C112.255 8.89514 112.489 9.21877 112.489 9.58726V14.8967V14.8999Z" fill="#16205B"></path>
</svg>
